<?xml version="1.0" encoding="us-ascii" standalone="no"?><svg xmlns="http://www.w3.org/2000/svg" xmlns:xlink="http://www.w3.org/1999/xlink" contentStyleType="text/css" height="830px" preserveAspectRatio="none" style="width:704px;height:830px;background:#FFFFFF;" version="1.1" viewBox="0 0 704 830" width="704px" zoomAndPan="magnify"><defs/><g><!--class User--><g id="elem_User"><rect codeLine="2" fill="#F1F1F1" height="219.6113" id="User" rx="2.5" ry="2.5" style="stroke:#181818;stroke-width:0.5;" width="170" x="330" y="7"/><ellipse cx="395.25" cy="23" fill="#ADD1B2" rx="11" ry="11" style="stroke:#181818;stroke-width:1.0;"/><path d="M394.7188,29.9219 Q392.9688,29.9219 391.8281,29.1875 Q390.7031,28.4375 390.1406,27.0938 Q389.5938,25.7344 389.5938,23.9375 Q389.5938,21.9063 390.25,20.4531 Q390.9063,19 392.1875,18.2188 Q393.4688,17.4375 395.3438,17.4375 Q396.2344,17.4375 396.9063,17.625 Q397.5781,17.7969 398.2656,18.1406 L397.4531,20.1563 Q396.8281,19.8438 396.2813,19.7188 Q395.75,19.5938 395.2656,19.5938 Q394.0938,19.5938 393.3906,20.125 Q392.6875,20.6563 392.3906,21.6094 Q392.0938,22.5625 392.0938,23.8281 Q392.0938,25.8438 392.8125,26.8125 Q393.5313,27.7656 395.125,27.7656 Q395.7188,27.7656 396.3438,27.6094 Q396.9688,27.4531 397.7969,27.0781 L397.7969,29.2969 Q397.0625,29.6094 396.2656,29.7656 Q395.4844,29.9219 394.7188,29.9219 Z " fill="#000000"/><text fill="#000000" font-family="sans-serif" font-size="14" lengthAdjust="spacing" textLength="31" x="415.75" y="28.432">User</text><line style="stroke:#181818;stroke-width:0.5;" x1="331" x2="499" y1="39" y2="39"/><text fill="#000000" font-family="sans-serif" font-size="14" lengthAdjust="spacing" textLength="4" x="350" y="57.9659">&#160;</text><rect fill="none" height="6" style="stroke:#C82930;stroke-width:1.0;" width="6" x="338" y="70.1019"/><text fill="#000000" font-family="sans-serif" font-size="14" lengthAdjust="spacing" textLength="39" x="350" y="77.0339">id: int</text><rect fill="none" height="6" style="stroke:#C82930;stroke-width:1.0;" width="6" x="338" y="89.1698"/><text fill="#000000" font-family="sans-serif" font-size="14" lengthAdjust="spacing" textLength="86" x="350" y="96.1018">name: string</text><rect fill="none" height="6" style="stroke:#C82930;stroke-width:1.0;" width="6" x="338" y="108.2377"/><text fill="#000000" font-family="sans-serif" font-size="14" lengthAdjust="spacing" textLength="85" x="350" y="115.1697">email: string</text><rect fill="none" height="6" style="stroke:#C82930;stroke-width:1.0;" width="6" x="338" y="127.3056"/><text fill="#000000" font-family="sans-serif" font-size="14" lengthAdjust="spacing" textLength="113" x="350" y="134.2376">password: string</text><rect fill="none" height="6" style="stroke:#C82930;stroke-width:1.0;" width="6" x="338" y="146.3735"/><text fill="#000000" font-family="sans-serif" font-size="14" lengthAdjust="spacing" textLength="138" x="350" y="153.3055">created_at: datetime</text><rect fill="none" height="6" style="stroke:#C82930;stroke-width:1.0;" width="6" x="338" y="165.4415"/><text fill="#000000" font-family="sans-serif" font-size="14" lengthAdjust="spacing" textLength="144" x="350" y="172.3734">updated_at: datetime</text><line style="stroke:#181818;stroke-width:1.0;" x1="331" x2="499" y1="180.4754" y2="180.4754"/><line style="stroke:#181818;stroke-width:1.0;" x1="331" x2="499" y1="182.4754" y2="182.4754"/><polygon fill="none" points="341,191.5094,337,197.5094,345,197.5094" style="stroke:#1963A0;stroke-width:1.0;"/><text fill="#000000" font-family="sans-serif" font-size="14" lengthAdjust="spacing" textLength="41" x="350" y="199.4414">getter</text><polygon fill="none" points="341,210.5773,337,216.5773,345,216.5773" style="stroke:#1963A0;stroke-width:1.0;"/><text fill="#000000" font-family="sans-serif" font-size="14" lengthAdjust="spacing" textLength="39" x="350" y="218.5093">setter</text></g><!--class Photo--><g id="elem_Photo"><rect codeLine="15" fill="#F1F1F1" height="219.6113" id="Photo" rx="2.5" ry="2.5" style="stroke:#181818;stroke-width:0.5;" width="170" x="214" y="305.61"/><ellipse cx="275.75" cy="321.61" fill="#ADD1B2" rx="11" ry="11" style="stroke:#181818;stroke-width:1.0;"/><path d="M275.2188,328.5319 Q273.4688,328.5319 272.3281,327.7975 Q271.2031,327.0475 270.6406,325.7038 Q270.0938,324.3444 270.0938,322.5475 Q270.0938,320.5163 270.75,319.0631 Q271.4063,317.61 272.6875,316.8288 Q273.9688,316.0475 275.8438,316.0475 Q276.7344,316.0475 277.4063,316.235 Q278.0781,316.4069 278.7656,316.7506 L277.9531,318.7663 Q277.3281,318.4538 276.7813,318.3288 Q276.25,318.2038 275.7656,318.2038 Q274.5938,318.2038 273.8906,318.735 Q273.1875,319.2663 272.8906,320.2194 Q272.5938,321.1725 272.5938,322.4381 Q272.5938,324.4538 273.3125,325.4225 Q274.0313,326.3756 275.625,326.3756 Q276.2188,326.3756 276.8438,326.2194 Q277.4688,326.0631 278.2969,325.6881 L278.2969,327.9069 Q277.5625,328.2194 276.7656,328.3756 Q275.9844,328.5319 275.2188,328.5319 Z " fill="#000000"/><text fill="#000000" font-family="sans-serif" font-size="14" lengthAdjust="spacing" textLength="38" x="296.25" y="327.042">Photo</text><line style="stroke:#181818;stroke-width:0.5;" x1="215" x2="383" y1="337.61" y2="337.61"/><text fill="#000000" font-family="sans-serif" font-size="14" lengthAdjust="spacing" textLength="4" x="234" y="356.5759">&#160;</text><rect fill="none" height="6" style="stroke:#C82930;stroke-width:1.0;" width="6" x="222" y="368.7119"/><text fill="#000000" font-family="sans-serif" font-size="14" lengthAdjust="spacing" textLength="39" x="234" y="375.6439">id: int</text><rect fill="none" height="6" style="stroke:#C82930;stroke-width:1.0;" width="6" x="222" y="387.7798"/><text fill="#000000" font-family="sans-serif" font-size="14" lengthAdjust="spacing" textLength="75" x="234" y="394.7118">user_id: int</text><rect fill="none" height="6" style="stroke:#C82930;stroke-width:1.0;" width="6" x="222" y="406.8477"/><text fill="#000000" font-family="sans-serif" font-size="14" lengthAdjust="spacing" textLength="67" x="234" y="413.7797">url: string</text><rect fill="none" height="6" style="stroke:#C82930;stroke-width:1.0;" width="6" x="222" y="425.9156"/><text fill="#000000" font-family="sans-serif" font-size="14" lengthAdjust="spacing" textLength="138" x="234" y="432.8476">created_at: datetime</text><rect fill="none" height="6" style="stroke:#C82930;stroke-width:1.0;" width="6" x="222" y="444.9835"/><text fill="#000000" font-family="sans-serif" font-size="14" lengthAdjust="spacing" textLength="144" x="234" y="451.9155">updated_at: datetime</text><rect fill="none" height="6" style="stroke:#C82930;stroke-width:1.0;" width="6" x="222" y="464.0515"/><text fill="#000000" font-family="sans-serif" font-size="14" lengthAdjust="spacing" textLength="77" x="234" y="470.9834">tags: string</text><line style="stroke:#181818;stroke-width:1.0;" x1="215" x2="383" y1="479.0854" y2="479.0854"/><line style="stroke:#181818;stroke-width:1.0;" x1="215" x2="383" y1="481.0854" y2="481.0854"/><polygon fill="none" points="225,490.1194,221,496.1194,229,496.1194" style="stroke:#1963A0;stroke-width:1.0;"/><text fill="#000000" font-family="sans-serif" font-size="14" lengthAdjust="spacing" textLength="41" x="234" y="498.0514">getter</text><polygon fill="none" points="225,509.1873,221,515.1873,229,515.1873" style="stroke:#1963A0;stroke-width:1.0;"/><text fill="#000000" font-family="sans-serif" font-size="14" lengthAdjust="spacing" textLength="39" x="234" y="517.1193">setter</text></g><!--class Album--><g id="elem_Album"><rect codeLine="28" fill="#F1F1F1" height="200.5433" id="Album" rx="2.5" ry="2.5" style="stroke:#181818;stroke-width:0.5;" width="170" x="527" y="315.14"/><ellipse cx="585.75" cy="331.14" fill="#ADD1B2" rx="11" ry="11" style="stroke:#181818;stroke-width:1.0;"/><path d="M585.2188,338.0619 Q583.4688,338.0619 582.3281,337.3275 Q581.2031,336.5775 580.6406,335.2338 Q580.0938,333.8744 580.0938,332.0775 Q580.0938,330.0463 580.75,328.5931 Q581.4063,327.14 582.6875,326.3588 Q583.9688,325.5775 585.8438,325.5775 Q586.7344,325.5775 587.4063,325.765 Q588.0781,325.9369 588.7656,326.2806 L587.9531,328.2963 Q587.3281,327.9838 586.7813,327.8588 Q586.25,327.7338 585.7656,327.7338 Q584.5938,327.7338 583.8906,328.265 Q583.1875,328.7963 582.8906,329.7494 Q582.5938,330.7025 582.5938,331.9681 Q582.5938,333.9838 583.3125,334.9525 Q584.0313,335.9056 585.625,335.9056 Q586.2188,335.9056 586.8438,335.7494 Q587.4688,335.5931 588.2969,335.2181 L588.2969,337.4369 Q587.5625,337.7494 586.7656,337.9056 Q585.9844,338.0619 585.2188,338.0619 Z " fill="#000000"/><text fill="#000000" font-family="sans-serif" font-size="14" lengthAdjust="spacing" textLength="44" x="606.25" y="336.572">Album</text><line style="stroke:#181818;stroke-width:0.5;" x1="528" x2="696" y1="347.14" y2="347.14"/><text fill="#000000" font-family="sans-serif" font-size="14" lengthAdjust="spacing" textLength="4" x="547" y="366.1059">&#160;</text><rect fill="none" height="6" style="stroke:#C82930;stroke-width:1.0;" width="6" x="535" y="378.2419"/><text fill="#000000" font-family="sans-serif" font-size="14" lengthAdjust="spacing" textLength="39" x="547" y="385.1739">id: int</text><rect fill="none" height="6" style="stroke:#C82930;stroke-width:1.0;" width="6" x="535" y="397.3098"/><text fill="#000000" font-family="sans-serif" font-size="14" lengthAdjust="spacing" textLength="75" x="547" y="404.2418">user_id: int</text><rect fill="none" height="6" style="stroke:#C82930;stroke-width:1.0;" width="6" x="535" y="416.3777"/><text fill="#000000" font-family="sans-serif" font-size="14" lengthAdjust="spacing" textLength="86" x="547" y="423.3097">name: string</text><rect fill="none" height="6" style="stroke:#C82930;stroke-width:1.0;" width="6" x="535" y="435.4456"/><text fill="#000000" font-family="sans-serif" font-size="14" lengthAdjust="spacing" textLength="138" x="547" y="442.3776">created_at: datetime</text><rect fill="none" height="6" style="stroke:#C82930;stroke-width:1.0;" width="6" x="535" y="454.5135"/><text fill="#000000" font-family="sans-serif" font-size="14" lengthAdjust="spacing" textLength="144" x="547" y="461.4455">updated_at: datetime</text><line style="stroke:#181818;stroke-width:1.0;" x1="528" x2="696" y1="469.5475" y2="469.5475"/><line style="stroke:#181818;stroke-width:1.0;" x1="528" x2="696" y1="471.5475" y2="471.5475"/><polygon fill="none" points="538,480.5815,534,486.5815,542,486.5815" style="stroke:#1963A0;stroke-width:1.0;"/><text fill="#000000" font-family="sans-serif" font-size="14" lengthAdjust="spacing" textLength="41" x="547" y="488.5134">getter</text><polygon fill="none" points="538,499.6494,534,505.6494,542,505.6494" style="stroke:#1963A0;stroke-width:1.0;"/><text fill="#000000" font-family="sans-serif" font-size="14" lengthAdjust="spacing" textLength="39" x="547" y="507.5814">setter</text></g><!--class Tag--><g id="elem_Tag"><rect codeLine="40" fill="#F1F1F1" height="181.4754" id="Tag" rx="2.5" ry="2.5" style="stroke:#181818;stroke-width:0.5;" width="170" x="214" y="623.29"/><ellipse cx="282.25" cy="639.29" fill="#ADD1B2" rx="11" ry="11" style="stroke:#181818;stroke-width:1.0;"/><path d="M281.7188,646.2119 Q279.9688,646.2119 278.8281,645.4775 Q277.7031,644.7275 277.1406,643.3838 Q276.5938,642.0244 276.5938,640.2275 Q276.5938,638.1963 277.25,636.7431 Q277.9063,635.29 279.1875,634.5088 Q280.4688,633.7275 282.3438,633.7275 Q283.2344,633.7275 283.9063,633.915 Q284.5781,634.0869 285.2656,634.4306 L284.4531,636.4463 Q283.8281,636.1338 283.2813,636.0088 Q282.75,635.8838 282.2656,635.8838 Q281.0938,635.8838 280.3906,636.415 Q279.6875,636.9463 279.3906,637.8994 Q279.0938,638.8525 279.0938,640.1181 Q279.0938,642.1338 279.8125,643.1025 Q280.5313,644.0556 282.125,644.0556 Q282.7188,644.0556 283.3438,643.8994 Q283.9688,643.7431 284.7969,643.3681 L284.7969,645.5869 Q284.0625,645.8994 283.2656,646.0556 Q282.4844,646.2119 281.7188,646.2119 Z " fill="#000000"/><text fill="#000000" font-family="sans-serif" font-size="14" lengthAdjust="spacing" textLength="25" x="302.75" y="644.722">Tag</text><line style="stroke:#181818;stroke-width:0.5;" x1="215" x2="383" y1="655.29" y2="655.29"/><text fill="#000000" font-family="sans-serif" font-size="14" lengthAdjust="spacing" textLength="4" x="234" y="674.2559">&#160;</text><rect fill="none" height="6" style="stroke:#C82930;stroke-width:1.0;" width="6" x="222" y="686.3919"/><text fill="#000000" font-family="sans-serif" font-size="14" lengthAdjust="spacing" textLength="39" x="234" y="693.3239">id: int</text><rect fill="none" height="6" style="stroke:#C82930;stroke-width:1.0;" width="6" x="222" y="705.4598"/><text fill="#000000" font-family="sans-serif" font-size="14" lengthAdjust="spacing" textLength="86" x="234" y="712.3918">name: string</text><rect fill="none" height="6" style="stroke:#C82930;stroke-width:1.0;" width="6" x="222" y="724.5277"/><text fill="#000000" font-family="sans-serif" font-size="14" lengthAdjust="spacing" textLength="138" x="234" y="731.4597">created_at: datetime</text><rect fill="none" height="6" style="stroke:#C82930;stroke-width:1.0;" width="6" x="222" y="743.5956"/><text fill="#000000" font-family="sans-serif" font-size="14" lengthAdjust="spacing" textLength="144" x="234" y="750.5276">updated_at: datetime</text><line style="stroke:#181818;stroke-width:1.0;" x1="215" x2="383" y1="758.6296" y2="758.6296"/><line style="stroke:#181818;stroke-width:1.0;" x1="215" x2="383" y1="760.6296" y2="760.6296"/><polygon fill="none" points="225,769.6635,221,775.6635,229,775.6635" style="stroke:#1963A0;stroke-width:1.0;"/><text fill="#000000" font-family="sans-serif" font-size="14" lengthAdjust="spacing" textLength="41" x="234" y="777.5955">getter</text><polygon fill="none" points="225,788.7315,221,794.7315,229,794.7315" style="stroke:#1963A0;stroke-width:1.0;"/><text fill="#000000" font-family="sans-serif" font-size="14" lengthAdjust="spacing" textLength="39" x="234" y="796.6634">setter</text></g><!--class Comment--><g id="elem_Comment"><rect codeLine="51" fill="#F1F1F1" height="219.6113" id="Comment" rx="2.5" ry="2.5" style="stroke:#181818;stroke-width:0.5;" width="170" x="419" y="604.22"/><ellipse cx="467.25" cy="620.22" fill="#ADD1B2" rx="11" ry="11" style="stroke:#181818;stroke-width:1.0;"/><path d="M466.7188,627.1419 Q464.9688,627.1419 463.8281,626.4075 Q462.7031,625.6575 462.1406,624.3138 Q461.5938,622.9544 461.5938,621.1575 Q461.5938,619.1263 462.25,617.6731 Q462.9063,616.22 464.1875,615.4388 Q465.4688,614.6575 467.3438,614.6575 Q468.2344,614.6575 468.9063,614.845 Q469.5781,615.0169 470.2656,615.3606 L469.4531,617.3763 Q468.8281,617.0638 468.2813,616.9388 Q467.75,616.8138 467.2656,616.8138 Q466.0938,616.8138 465.3906,617.345 Q464.6875,617.8763 464.3906,618.8294 Q464.0938,619.7825 464.0938,621.0481 Q464.0938,623.0638 464.8125,624.0325 Q465.5313,624.9856 467.125,624.9856 Q467.7188,624.9856 468.3438,624.8294 Q468.9688,624.6731 469.7969,624.2981 L469.7969,626.5169 Q469.0625,626.8294 468.2656,626.9856 Q467.4844,627.1419 466.7188,627.1419 Z " fill="#000000"/><text fill="#000000" font-family="sans-serif" font-size="14" lengthAdjust="spacing" textLength="65" x="487.75" y="625.652">Comment</text><line style="stroke:#181818;stroke-width:0.5;" x1="420" x2="588" y1="636.22" y2="636.22"/><text fill="#000000" font-family="sans-serif" font-size="14" lengthAdjust="spacing" textLength="4" x="439" y="655.1859">&#160;</text><rect fill="none" height="6" style="stroke:#C82930;stroke-width:1.0;" width="6" x="427" y="667.3219"/><text fill="#000000" font-family="sans-serif" font-size="14" lengthAdjust="spacing" textLength="39" x="439" y="674.2539">id: int</text><rect fill="none" height="6" style="stroke:#C82930;stroke-width:1.0;" width="6" x="427" y="686.3898"/><text fill="#000000" font-family="sans-serif" font-size="14" lengthAdjust="spacing" textLength="75" x="439" y="693.3218">user_id: int</text><rect fill="none" height="6" style="stroke:#C82930;stroke-width:1.0;" width="6" x="427" y="705.4577"/><text fill="#000000" font-family="sans-serif" font-size="14" lengthAdjust="spacing" textLength="84" x="439" y="712.3897">photo_id: int</text><rect fill="none" height="6" style="stroke:#C82930;stroke-width:1.0;" width="6" x="427" y="724.5256"/><text fill="#000000" font-family="sans-serif" font-size="14" lengthAdjust="spacing" textLength="99" x="439" y="731.4576">content: string</text><rect fill="none" height="6" style="stroke:#C82930;stroke-width:1.0;" width="6" x="427" y="743.5935"/><text fill="#000000" font-family="sans-serif" font-size="14" lengthAdjust="spacing" textLength="138" x="439" y="750.5255">created_at: datetime</text><rect fill="none" height="6" style="stroke:#C82930;stroke-width:1.0;" width="6" x="427" y="762.6615"/><text fill="#000000" font-family="sans-serif" font-size="14" lengthAdjust="spacing" textLength="144" x="439" y="769.5934">updated_at: datetime</text><line style="stroke:#181818;stroke-width:1.0;" x1="420" x2="588" y1="777.6954" y2="777.6954"/><line style="stroke:#181818;stroke-width:1.0;" x1="420" x2="588" y1="779.6954" y2="779.6954"/><polygon fill="none" points="430,788.7294,426,794.7294,434,794.7294" style="stroke:#1963A0;stroke-width:1.0;"/><text fill="#000000" font-family="sans-serif" font-size="14" lengthAdjust="spacing" textLength="41" x="439" y="796.6614">getter</text><polygon fill="none" points="430,807.7973,426,813.7973,434,813.7973" style="stroke:#1963A0;stroke-width:1.0;"/><text fill="#000000" font-family="sans-serif" font-size="14" lengthAdjust="spacing" textLength="39" x="439" y="815.7293">setter</text></g><!--class Sharing--><g id="elem_Sharing"><rect codeLine="64" fill="#F1F1F1" height="200.5433" id="Sharing" rx="2.5" ry="2.5" style="stroke:#181818;stroke-width:0.5;" width="170" x="9" y="613.75"/><ellipse cx="63.25" cy="629.75" fill="#ADD1B2" rx="11" ry="11" style="stroke:#181818;stroke-width:1.0;"/><path d="M62.7188,636.6719 Q60.9688,636.6719 59.8281,635.9375 Q58.7031,635.1875 58.1406,633.8438 Q57.5938,632.4844 57.5938,630.6875 Q57.5938,628.6563 58.25,627.2031 Q58.9063,625.75 60.1875,624.9688 Q61.4688,624.1875 63.3438,624.1875 Q64.2344,624.1875 64.9063,624.375 Q65.5781,624.5469 66.2656,624.8906 L65.4531,626.9063 Q64.8281,626.5938 64.2813,626.4688 Q63.75,626.3438 63.2656,626.3438 Q62.0938,626.3438 61.3906,626.875 Q60.6875,627.4063 60.3906,628.3594 Q60.0938,629.3125 60.0938,630.5781 Q60.0938,632.5938 60.8125,633.5625 Q61.5313,634.5156 63.125,634.5156 Q63.7188,634.5156 64.3438,634.3594 Q64.9688,634.2031 65.7969,633.8281 L65.7969,636.0469 Q65.0625,636.3594 64.2656,636.5156 Q63.4844,636.6719 62.7188,636.6719 Z " fill="#000000"/><text fill="#000000" font-family="sans-serif" font-size="14" lengthAdjust="spacing" textLength="53" x="83.75" y="635.182">Sharing</text><line style="stroke:#181818;stroke-width:0.5;" x1="10" x2="178" y1="645.75" y2="645.75"/><text fill="#000000" font-family="sans-serif" font-size="14" lengthAdjust="spacing" textLength="4" x="29" y="664.7159">&#160;</text><rect fill="none" height="6" style="stroke:#C82930;stroke-width:1.0;" width="6" x="17" y="676.8519"/><text fill="#000000" font-family="sans-serif" font-size="14" lengthAdjust="spacing" textLength="39" x="29" y="683.7839">id: int</text><rect fill="none" height="6" style="stroke:#C82930;stroke-width:1.0;" width="6" x="17" y="695.9198"/><text fill="#000000" font-family="sans-serif" font-size="14" lengthAdjust="spacing" textLength="75" x="29" y="702.8518">user_id: int</text><rect fill="none" height="6" style="stroke:#C82930;stroke-width:1.0;" width="6" x="17" y="714.9877"/><text fill="#000000" font-family="sans-serif" font-size="14" lengthAdjust="spacing" textLength="84" x="29" y="721.9197">photo_id: int</text><rect fill="none" height="6" style="stroke:#C82930;stroke-width:1.0;" width="6" x="17" y="734.0556"/><text fill="#000000" font-family="sans-serif" font-size="14" lengthAdjust="spacing" textLength="138" x="29" y="740.9876">created_at: datetime</text><rect fill="none" height="6" style="stroke:#C82930;stroke-width:1.0;" width="6" x="17" y="753.1235"/><text fill="#000000" font-family="sans-serif" font-size="14" lengthAdjust="spacing" textLength="144" x="29" y="760.0555">updated_at: datetime</text><line style="stroke:#181818;stroke-width:1.0;" x1="10" x2="178" y1="768.1575" y2="768.1575"/><line style="stroke:#181818;stroke-width:1.0;" x1="10" x2="178" y1="770.1575" y2="770.1575"/><polygon fill="none" points="20,779.1915,16,785.1915,24,785.1915" style="stroke:#1963A0;stroke-width:1.0;"/><text fill="#000000" font-family="sans-serif" font-size="14" lengthAdjust="spacing" textLength="41" x="29" y="787.1234">getter</text><polygon fill="none" points="20,798.2594,16,804.2594,24,804.2594" style="stroke:#1963A0;stroke-width:1.0;"/><text fill="#000000" font-family="sans-serif" font-size="14" lengthAdjust="spacing" textLength="39" x="29" y="806.1914">setter</text></g><!--link User to Photo--><g id="link_User_Photo"><path codeLine="76" d="M372.3,226.99 C362.29,252.59 351.62,279.87 341.61,305.46 " fill="none" id="User-Photo" style="stroke:#181818;stroke-width:1.0;"/><text fill="#000000" font-family="sans-serif" font-size="13" lengthAdjust="spacing" textLength="32" x="362" y="271.507">owns</text><text fill="#000000" font-family="sans-serif" font-size="13" lengthAdjust="spacing" textLength="7" x="362.3403" y="248.5128">1</text><text fill="#000000" font-family="sans-serif" font-size="13" lengthAdjust="spacing" textLength="20" x="324.0048" y="293.6839">0..*</text></g><!--link User to Album--><g id="link_User_Album"><path codeLine="77" d="M487.52,226.99 C506.61,255.73 527.1,286.58 545.83,314.79 " fill="none" id="User-Album" style="stroke:#181818;stroke-width:1.0;"/><text fill="#000000" font-family="sans-serif" font-size="13" lengthAdjust="spacing" textLength="32" x="520" y="271.507">owns</text><text fill="#000000" font-family="sans-serif" font-size="13" lengthAdjust="spacing" textLength="7" x="484.9416" y="248.5128">1</text><text fill="#000000" font-family="sans-serif" font-size="13" lengthAdjust="spacing" textLength="20" x="519.9982" y="303.3594">0..*</text></g><!--link Photo to Tag--><g id="link_Photo_Tag"><path codeLine="78" d="M299,525.6 C299,557.64 299,592.31 299,623.02 " fill="none" id="Photo-Tag" style="stroke:#181818;stroke-width:1.0;"/><text fill="#000000" font-family="sans-serif" font-size="13" lengthAdjust="spacing" textLength="21" x="300" y="570.117">has</text><text fill="#000000" font-family="sans-serif" font-size="13" lengthAdjust="spacing" textLength="7" x="291.7758" y="547.1228">1</text><text fill="#000000" font-family="sans-serif" font-size="13" lengthAdjust="spacing" textLength="20" x="278.1406" y="611.3959">0..*</text></g><!--link User to Comment--><g id="link_User_Comment"><path codeLine="79" d="M429.36,226.87 C440.39,309 456.35,424.29 472,525.22 C475.95,550.71 480.47,578.11 484.84,603.87 " fill="none" id="User-Comment" style="stroke:#181818;stroke-width:1.0;"/><text fill="#000000" font-family="sans-serif" font-size="13" lengthAdjust="spacing" textLength="36" x="473" y="420.807">writes</text><text fill="#000000" font-family="sans-serif" font-size="13" lengthAdjust="spacing" textLength="7" x="423.0557" y="248.3852">1</text><text fill="#000000" font-family="sans-serif" font-size="13" lengthAdjust="spacing" textLength="20" x="462.7897" y="592.4489">0..*</text></g><!--link Photo to Comment--><g id="link_Photo_Comment"><path codeLine="80" d="M371.59,525.34 C382.7,541.77 394.1,558.48 405,574.22 C411.65,583.83 418.61,593.78 425.62,603.74 " fill="none" id="Photo-Comment" style="stroke:#181818;stroke-width:1.0;"/><text fill="#000000" font-family="sans-serif" font-size="13" lengthAdjust="spacing" textLength="21" x="406" y="570.117">has</text><text fill="#000000" font-family="sans-serif" font-size="13" lengthAdjust="spacing" textLength="7" x="369.232" y="547.2174">1</text><text fill="#000000" font-family="sans-serif" font-size="13" lengthAdjust="spacing" textLength="20" x="399.4058" y="592.3097">0..*</text></g><!--link User to Sharing--><g id="link_User_Sharing"><path codeLine="81" d="M329.52,157.13 C270.92,188.73 196.68,238.85 156,305.61 C99.04,399.09 88.02,526.36 88.37,613.64 " fill="none" id="User-Sharing" style="stroke:#181818;stroke-width:1.0;"/><text fill="#000000" font-family="sans-serif" font-size="13" lengthAdjust="spacing" textLength="39" x="157" y="420.807">shares</text><text fill="#000000" font-family="sans-serif" font-size="13" lengthAdjust="spacing" textLength="7" x="314.8733" y="156.7923">1</text><text fill="#000000" font-family="sans-serif" font-size="13" lengthAdjust="spacing" textLength="20" x="67.1245" y="601.8886">0..*</text></g><!--link Photo to Sharing--><g id="link_Photo_Sharing"><path codeLine="82" d="M223.54,525.6 C203.67,554.34 182.35,585.19 162.85,613.4 " fill="none" id="Photo-Sharing" style="stroke:#181818;stroke-width:1.0;"/><text fill="#000000" font-family="sans-serif" font-size="13" lengthAdjust="spacing" textLength="53" x="204" y="570.117">is shared</text><text fill="#000000" font-family="sans-serif" font-size="13" lengthAdjust="spacing" textLength="7" x="211.4816" y="547.1228">1</text><text fill="#000000" font-family="sans-serif" font-size="13" lengthAdjust="spacing" textLength="20" x="147.3557" y="601.9694">0..*</text></g><!--SRC=[lLF1IiGm4BtdAuOUXIvw3Un1_051FIzZCxI19Yd9b1x4_VPDcwoBjGNBkkQKUU_bzNKcgLeC0Tu2UVWG0k8gGIi9sdAkB1gI4DXhMsU83EfsXdNHPt1UpU3A4pAf0x845NUi3MMgxzHFQh-Vs2FKn4m-5o4Ldq9KKzxdnh5R2zp7dpdC8DzUcIjHZ7NuClfTrCVslJSReYwq-pOzVCLwmyXla-796KEMDxId6oS_mofdERhyI-AN1iTlN9luZxDDxxTuAA0ieRZVxUwA_4GakC669JxToymdyNV1U3yaDBXu-Zmu2OFNJCiE5z6AoxcPSN9nj-9o4UcGT4gS0000]--></g></svg>